<?xml version="1.0" encoding="UTF-8" standalone="no"?>
<svg width="20px" height="21px" viewBox="0 0 20 21" version="1.1" xmlns="http://www.w3.org/2000/svg" xmlns:xlink="http://www.w3.org/1999/xlink">
    <!-- Generator: sketchtool 49 (51002) - http://www.bohemiancoding.com/sketch -->
    <title>1AB67ACF-2CA0-4A94-8B8E-5834F2681DE4</title>
    <desc>Created with sketchtool.</desc>
    <defs></defs>
    <g id="Symbols" stroke="none" stroke-width="1" fill="none" fill-rule="evenodd">
        <g id="webapp/New-Header" transform="translate(-897.000000, -16.000000)">
            <g id="NEW-HEADER">
                <g id="HEADER">
                    <g id="Bell-Icon'" transform="translate(897.000000, 16.000000)">
                        <g id="Bell" fill="#FFFFFF" fill-rule="nonzero">
                            <path d="M0.571428571,15.3333333 L8.18325499,15.3333333 L8.29293549,15.3333333 L15.9047619,15.3333333 L15.9047619,13.4166667 C15.1150623,13.225 13.711152,12.2666667 13.711152,7.475 C13.711152,3.83333333 11.1885006,2.57685185 9.56522924,2.12962963 C9.69684583,1.91666667 9.76265413,1.68240741 9.76265413,1.42685185 C9.76265413,0.638888889 9.08263506,0 8.27099939,0 C7.45936372,0 6.77934464,0.638888889 6.77934464,1.42685185 C6.77934464,1.68240741 6.84515294,1.91666667 6.97676953,2.12962963 C5.35349819,2.55555556 2.83084679,3.83333333 2.83084679,7.475 C2.83084679,12.2666667 1.42693644,13.225 0.637236869,13.4166667 L0.637236869,15.3333333 L0.571428571,15.3333333 Z" id="Shape"></path>
                            <path d="M8.23809524,17.5238095 C9.34486216,17.5238095 10.2671679,16.5746032 10.4285714,15.3333333 L6.04761905,15.3333333 C6.20902256,16.5746032 7.13132832,17.5238095 8.23809524,17.5238095 Z" id="Shape"></path>
                        </g>
                        <g id="Notification" transform="translate(8.000000, 9.000000)">
                            <circle id="Oval" fill="#FF1100" cx="6" cy="6" r="6"></circle>
                            <text id="10" font-family="Roboto-Regular, Roboto" font-size="9" font-weight="normal" letter-spacing="-0.879999995" fill="#FFFFFF">
                                <tspan x="1.32628906" y="9">10</tspan>
                            </text>
                        </g>
                    </g>
                </g>
            </g>
        </g>
    </g>
</svg>