<?xml version="1.0" encoding="UTF-8" standalone="no"?>
<svg width="9px" height="9px" viewBox="0 0 9 9" version="1.1" xmlns="http://www.w3.org/2000/svg" xmlns:xlink="http://www.w3.org/1999/xlink">
    <!-- Generator: sketchtool 49 (51002) - http://www.bohemiancoding.com/sketch -->
    <title>3FD6CC5F-5E3A-4E20-9711-CB600EC8C0B0</title>
    <desc>Created with sketchtool.</desc>
    <defs></defs>
    <g id="Web-App-Main-Pages" stroke="none" stroke-width="1" fill="none" fill-rule="evenodd">
        <g id="Active-Jobs-Worker-Activity" transform="translate(-81.000000, -247.000000)" fill="#89939A" fill-rule="nonzero">
            <g id="clock-copy-5" transform="translate(81.000000, 247.000000)">
                <path d="M4.5,9 C5.65864759,9 6.80559168,8.55555556 7.68335501,7.67836257 C9.43888166,5.92397661 9.43888166,3.07017544 7.68335501,1.31578947 C7.68335501,1.31578947 7.68335501,1.31578947 7.68335501,1.31578947 C5.92782835,-0.438596491 3.07217165,-0.438596491 1.31664499,1.31578947 C-0.438881664,3.07017544 -0.438881664,5.92397661 1.31664499,7.67836257 C2.19440832,8.55555556 3.34135241,9 4.5,9 Z M1.72626788,1.7251462 C2.4869961,0.964912281 3.49349805,0.578947368 4.5,0.578947368 C5.50650195,0.578947368 6.5130039,0.964912281 7.27373212,1.7251462 C8.80689207,3.25730994 8.80689207,5.73684211 7.27373212,7.26900585 C5.74057217,8.80116959 3.25942783,8.80116959 1.72626788,7.26900585 C0.193107932,5.73684211 0.193107932,3.25730994 1.72626788,1.7251462 Z" id="Shape"></path>
                <path d="M2.80282573,6.54545455 C2.89794738,6.54545455 2.97948023,6.51315789 3.04742427,6.45933014 L4.81396926,4.94138756 C4.86832449,4.88755981 4.90909091,4.82296651 4.90909091,4.75837321 L4.90909091,2.72368421 C4.90909091,2.57296651 4.75961403,2.45454545 4.56937072,2.45454545 C4.37912741,2.45454545 4.22965053,2.57296651 4.22965053,2.72368421 L4.22965053,4.66148325 L2.54463839,6.09330144 C2.42233912,6.20095694 2.42233912,6.37320574 2.55822719,6.47009569 C2.62617123,6.52392344 2.72129288,6.54545455 2.80282573,6.54545455 Z" id="Shape"></path>
            </g>
        </g>
    </g>
</svg>