<?xml version="1.0" encoding="UTF-8" standalone="no"?>
<svg width="18px" height="19px" viewBox="0 0 18 19" version="1.1" xmlns="http://www.w3.org/2000/svg" xmlns:xlink="http://www.w3.org/1999/xlink">
    <!-- Generator: sketchtool 49 (51002) - http://www.bohemiancoding.com/sketch -->
    <title>43E00FDB-33F7-41E3-8844-11C50487BC9C</title>
    <desc>Created with sketchtool.</desc>
    <defs></defs>
    <g id="Symbols" stroke="none" stroke-width="1" fill="none" fill-rule="evenodd">
        <g id="webapp/New-Header" transform="translate(-943.000000, -71.000000)" fill="#89939A" fill-rule="nonzero">
            <g id="NEW-HEADER">
                <g id="HEADER">
                    <g id="Chat-icon" transform="translate(943.000000, 71.637820)">
                        <path d="M7,0.0893071233 L6.765625,2.1620811 C5.78225,2.47596658 4.889975,2.98925753 4.140625,3.65694411 L2.203125,2.81704685 L0.203125,6.23827973 L1.91405,7.47115644 C1.809925,7.95364027 1.75,8.45289863 1.75,8.96602192 C1.75,9.47912055 1.80995,9.97841096 1.91405,10.4608849 L0.203125,11.6937616 L2.203125,15.1149945 L4.140625,14.2750849 C4.889975,14.9427616 5.78225,15.4560822 6.765625,15.7699479 L7,17.8427342 L11,17.8427342 L11.234375,15.7699479 C12.21775,15.4560822 13.110025,14.9427616 13.859375,14.2750849 L15.796875,15.1149945 L17.796875,11.6937616 L16.08595,10.4608849 C16.190075,9.97841096 16.25,9.47912055 16.25,8.96602192 C16.25,8.45289863 16.19005,7.95364027 16.08595,7.47115644 L17.796875,6.23827973 L15.796875,2.81704685 L13.859375,3.65694411 C13.110025,2.98925507 12.21775,2.47596658 11.234375,2.1620811 L11,0.0893071233 L7,0.0893071233 Z M9,5.02081397 C11.20915,5.02081397 13,6.78712685 13,8.96602192 C13,11.1448849 11.20915,12.9112274 9,12.9112274 C6.790875,12.9112274 5,11.1448849 5,8.96602192 C5,6.78712685 6.790875,5.02081397 9,5.02081397 Z" id="Shape"></path>
                    </g>
                </g>
            </g>
        </g>
    </g>
</svg>