<?xml version="1.0" encoding="UTF-8" standalone="no"?>
<svg width="113px" height="14px" viewBox="0 0 113 14" version="1.1" xmlns="http://www.w3.org/2000/svg" xmlns:xlink="http://www.w3.org/1999/xlink">
    <!-- Generator: sketchtool 49 (51002) - http://www.bohemiancoding.com/sketch -->
    <title>E6C2AB20-545F-4307-A00E-2427BFC9DAB7</title>
    <desc>Created with sketchtool.</desc>
    <defs></defs>
    <g id="Symbols" stroke="none" stroke-width="1" fill="none" fill-rule="evenodd">
        <g id="webapp/New-Header" transform="translate(-42.000000, -21.000000)" fill="#FFFFFF" fill-rule="nonzero">
            <g id="Copy-of-timesaved-(1)" transform="translate(42.000000, 21.000000)">
                <polygon id="Shape" points="5.97120224 13.7432432 4.71798695 13.7432432 4.71798695 2.69047619 0 2.69047619 0 1.52702703 10.6891892 1.52702703 10.6891892 2.69047619 5.95891581 2.69047619"></polygon>
                <polygon id="Shape" points="15.2702703 13.7432432 13.7432432 13.7432432 13.7432432 1.52702703 15.2702703 1.52702703"></polygon>
                <polygon id="Shape" points="32.0675676 13.7432432 30.825032 13.7432432 30.825032 3.96524302 26.4823086 10.7017573 25.424308 10.7017573 21.0938869 3.99037927 21.0938869 13.7306751 19.8513514 13.7306751 19.8513514 1.81609387 20.9339566 1.53959515 25.9656106 9.26899121 30.9603576 1.52702703 32.0675676 1.80352575"></polygon>
                <polygon id="Shape" points="44.2837838 13.7432432 35.1216216 13.7432432 35.1216216 1.52702703 44.2837838 1.52702703 44.2837838 2.70141772 36.3104212 2.70141772 36.3104212 7.10538281 43.9235415 7.10538281 43.9235415 8.2797735 36.3104212 8.2797735 36.3104212 12.5305572 44.2837838 12.5305572"></polygon>
                <path d="M52.7111359,13.7432432 C51.6433652,13.7432432 48.0841292,13.544201 47.3837635,10.9690923 L47.3378378,10.7824902 L48.4056086,10.4714868 L48.4515342,10.6456487 C48.6811624,11.4418176 49.7144889,12.374828 51.9189189,12.5738702 C52.1600284,12.6111906 52.458545,12.6236308 52.7226174,12.6236308 C53.2048364,12.6236308 54.4333469,12.5738702 55.4666734,12.0762647 C56.3851859,11.6284197 56.8559236,10.9815324 56.8559236,10.1231629 C56.8559236,8.56814554 55.2370453,8.31934276 52.768543,8.12030054 C50.3459663,7.92125833 47.6133916,7.69733583 47.6133916,4.9231849 C47.6133916,2.59687896 50.2081894,1.85047063 51.0118878,1.67630869 C51.5285511,1.57678758 52.0566958,1.52702703 52.5389149,1.52702703 C54.0889047,1.52702703 56.7985166,1.83803049 57.5677708,3.96529421 L57.6366592,4.13945616 L56.6148141,4.54998073 L56.557407,4.37581879 C56.1555578,3.24376617 54.8122333,2.67151979 52.5733591,2.67151979 C52.515952,2.67151979 52.4470636,2.67151979 52.3896566,2.68395993 C52.3092867,2.68395993 52.2289169,2.69640007 52.1600284,2.69640007 C50.139301,2.84568173 49.1289372,3.72893158 48.8878277,4.45045962 L48.8763463,4.4753399 C48.8189392,4.59974129 48.784495,4.77390323 48.784495,4.94806517 C48.784495,6.51552265 50.4148547,6.77676556 52.9063199,6.98824792 C55.3059338,7.19973028 58.027027,7.42365278 58.027027,10.1231629 C57.9811014,12.7853526 55.2600081,13.7432432 52.7111359,13.7432432 Z" id="Shape"></path>
                <path d="M73.7100073,13.7432432 L71.9680864,10.5304546 L63.9501272,10.5304546 L62.2082063,13.7432432 L61.0810811,13.1590998 L67.4339689,1.52702703 L68.44582,1.52702703 L74.8243243,13.1590998 L73.7100073,13.7432432 Z M64.577731,9.36216778 L71.3148661,9.36216778 L67.9591068,3.15246952 L64.577731,9.36216778 Z" id="Shape"></path>
                <polygon id="Shape" points="97.7177687 13.7432432 88.5675676 13.7432432 88.5675676 1.52702703 97.7177687 1.52702703 97.7177687 2.70141772 89.7636723 2.70141772 89.7636723 7.10538281 97.3469762 7.10538281 97.3469762 8.2797735 89.7636723 8.2797735 89.7636723 12.5305572 97.7297297 12.5305572"></polygon>
                <path d="M107.338201,13.7432432 L102.310811,13.7432432 L102.310811,1.52702703 L107.338201,1.52702703 C109.085818,1.52702703 110.546155,2.19081307 111.587543,3.44179446 C112.497261,4.55235957 113,6.03311305 113,7.62875258 C113,9.2243921 112.497261,10.7051456 111.587543,11.8157107 C110.546155,13.0794572 109.061878,13.7432432 107.338201,13.7432432 Z M103.507808,12.5433223 L107.338201,12.5433223 C108.726718,12.5433223 109.875836,12.0199526 110.689794,11.0115084 C111.407993,10.1179502 111.803002,8.91802931 111.803002,7.61598746 C111.803002,5.24167585 110.402515,2.6886526 107.338201,2.6886526 L103.507808,2.6886526 L103.507808,12.5433223 Z" id="Shape"></path>
                <path d="M78.9115733,13.7432432 L74.8243243,5.22713098 C74.8243243,5.22713098 74.9399021,5.097921 75.1395363,4.92172557 C75.3181565,4.75727651 75.5388049,4.58108108 75.5388049,4.58108108 L79.4054054,12.5568607 L78.9115733,13.7432432 Z" id="Shape"></path>
                <path d="M79.5345409,13.7432432 L79.4054054,11.8093439 L79.418319,11.7859027 L84.415862,3.05405405 C84.415862,3.05405405 84.69996,3.08921586 84.9711445,3.14781887 C85.3198103,3.22986309 85.5135135,3.3236279 85.5135135,3.3236279 L79.5345409,13.7432432 Z" id="Shape"></path>
                <path d="M86.9232996,2.29149989 C82.8719739,0.872227332 78.091149,1.58186361 74.5999744,4.58108108 L73.2972973,2.14421689 C77.4398104,-0.694328222 83.0152683,-0.694328222 87.0405405,2.02371261 L86.9232996,2.29149989 Z" id="Shape"></path>
            </g>
        </g>
    </g>
</svg>