<?xml version="1.0" encoding="UTF-8" standalone="no"?>
<svg width="18px" height="17px" viewBox="0 0 18 17" version="1.1" xmlns="http://www.w3.org/2000/svg" xmlns:xlink="http://www.w3.org/1999/xlink">
    <!-- Generator: sketchtool 49 (51002) - http://www.bohemiancoding.com/sketch -->
    <title>9C03E300-8451-43E3-BA58-1975D25E51FB</title>
    <desc>Created with sketchtool.</desc>
    <defs></defs>
    <g id="Symbols" stroke="none" stroke-width="1" fill="none" fill-rule="evenodd">
        <g id="webapp/map-location" fill="#A7B9C6" fill-rule="nonzero">
            <g id="Map-2">
                <path d="M13.74467,12.1662229 C13.74467,14.6352881 11.7686033,16.6310093 9.29533271,16.6310093 C6.82206215,16.6310093 4.82049784,14.6352881 4.82049784,12.1662229 C4.82049784,9.82508854 6.82206215,7.611885 9.29533271,4.4903725 C11.7686033,7.611885 13.74467,9.82508854 13.74467,12.1662229 Z M7.67623291,12.2111757 C7.67623291,13.1183217 8.43959027,13.8677031 9.36365444,13.8677031 C10.2877186,13.8677031 11.0644682,13.1183217 11.0644682,12.2111757 C11.0644682,11.2908827 10.2877186,10.5415012 9.36365444,10.5415012 C8.43959027,10.5415012 7.67623291,11.2908827 7.67623291,12.2111757 Z M16.3326799,6.51167978 L13.1199779,7.73981584 L9.29533271,2.9679955 L5.47068752,7.73981584 L2.25798556,6.51167978 C1.95201394,6.38374894 1.95201394,6.38374894 1.90101867,6.089508 L0.957606191,1.34327382 C0.702629845,0.012793084 0.702629845,0.012793084 1.99026039,0.434964857 L5.47068752,1.5991355 L9.29533271,0 L13.1199779,1.5991355 L16.600405,0.434964857 C17.8880356,0.012793084 17.8880356,0.012793084 17.6330592,1.34327382 L16.6896468,6.089508 C16.6386515,6.38374894 16.6386515,6.38374894 16.3326799,6.51167978 Z" id="Shape" transform="translate(9.295333, 8.315505) scale(-1, 1) rotate(-180.000000) translate(-9.295333, -8.315505) "></path>
            </g>
        </g>
    </g>
</svg>