<?xml version="1.0" encoding="UTF-8" standalone="no"?>
<svg width="16px" height="16px" viewBox="0 0 16 16" version="1.1" xmlns="http://www.w3.org/2000/svg" xmlns:xlink="http://www.w3.org/1999/xlink">
    <!-- Generator: sketchtool 49 (51002) - http://www.bohemiancoding.com/sketch -->
    <title>CB83914A-D67E-41C7-B3FF-8459435088D1</title>
    <desc>Created with sketchtool.</desc>
    <defs></defs>
    <g id="Web-App-Main-Pages" stroke="none" stroke-width="1" fill="none" fill-rule="evenodd">
        <g id="Dashboard-for-Recruiter" transform="translate(-58.000000, -482.000000)" fill="#D0021B" fill-rule="nonzero">
            <g id="noun_11800_cc" transform="translate(58.000000, 482.000000)">
                <path d="M14.7770955,0.770375112 C14.2161337,0.72160444 13.7210567,1.12552957 13.6710157,1.67225033 L13.6217589,2.21346719 C12.1835885,0.909654366 10.3242262,0.194300215 8.34799684,0.194300215 C4.07333021,0.194300215 0.595555556,3.58363259 0.595555556,7.74977933 C0.595555556,11.9159261 4.07333021,15.3054113 8.34799684,15.3054113 C11.3018307,15.3054113 13.9591831,13.705611 15.2826826,11.1302443 C15.5347703,10.6394799 15.3314687,10.0424596 14.827764,9.7964658 C14.324373,9.55123647 13.7119583,9.74907111 13.4594001,10.2398355 C12.4835211,12.1383754 10.5251748,13.3177389 8.34799684,13.3177389 C5.19776362,13.3177389 2.63484606,10.8198855 2.63484606,7.74962644 C2.63484606,4.67952029 5.19776362,2.18166688 8.34799684,2.18166688 C9.81895277,2.18166688 11.2019055,2.71982601 12.2661014,3.69921449 L11.445836,3.62812245 C10.8870704,3.57843446 10.390111,3.9832769 10.3397562,4.52984478 C10.2901857,5.07656554 10.7043186,5.55907413 11.2652803,5.6078448 L14.3122941,5.87172624 C14.342256,5.87447819 14.3723747,5.8755484 14.4023366,5.8755484 C14.6407767,5.8755484 14.8726284,5.79421298 15.056792,5.64362015 C15.2641721,5.47483388 15.3940593,5.23220361 15.4180601,4.96969814 L15.7026196,1.84776359 C15.7523469,1.3013486 15.3380572,0.818840011 14.7770955,0.770375112 Z" id="Shape"></path>
            </g>
        </g>
    </g>
</svg>