<?xml version="1.0" encoding="UTF-8" standalone="no"?>
<svg width="18px" height="18px" viewBox="0 0 18 18" version="1.1" xmlns="http://www.w3.org/2000/svg" xmlns:xlink="http://www.w3.org/1999/xlink">
    <!-- Generator: sketchtool 49 (51002) - http://www.bohemiancoding.com/sketch -->
    <title>A37A447A-A7D5-4E65-B3D1-887BFFE55B84</title>
    <desc>Created with sketchtool.</desc>
    <defs></defs>
    <g id="Symbols" stroke="none" stroke-width="1" fill="none" fill-rule="evenodd">
        <g id="webapp/New-Header" transform="translate(-849.000000, -72.000000)" fill="#89939A" fill-rule="nonzero">
            <g id="NEW-HEADER">
                <path d="M862.148438,82.96875 C862.851562,81.8625 863.264063,80.55 863.264063,79.1390625 C863.264063,75.196875 860.071875,72 856.134375,72 C852.192188,72 849,75.196875 849,79.1390625 C849,83.08125 852.192188,86.278125 856.129688,86.278125 C857.559375,86.278125 858.890625,85.85625 860.00625,85.134375 L860.329687,84.909375 L865.420313,90 L867,88.3921875 L861.914062,83.3015625 L862.148438,82.96875 Z M860.128125,75.15 C861.192188,76.2140625 861.778125,77.6296875 861.778125,79.134375 C861.778125,80.6390625 861.192188,82.0546875 860.128125,83.11875 C859.064062,84.1828125 857.648438,84.76875 856.14375,84.76875 C854.639063,84.76875 853.223438,84.1828125 852.159375,83.11875 C851.095312,82.0546875 850.509375,80.6390625 850.509375,79.134375 C850.509375,77.6296875 851.095312,76.2140625 852.159375,75.15 C853.223438,74.0859375 854.639063,73.5 856.14375,73.5 C857.648438,73.5 859.064062,74.0859375 860.128125,75.15 Z" id="Shape"></path>
            </g>
        </g>
    </g>
</svg>