<?xml version="1.0" encoding="UTF-8" standalone="no"?>
<svg width="7px" height="13px" viewBox="0 0 7 13" version="1.1" xmlns="http://www.w3.org/2000/svg" xmlns:xlink="http://www.w3.org/1999/xlink">
    <!-- Generator: sketchtool 49 (51002) - http://www.bohemiancoding.com/sketch -->
    <title>A6BE385B-2AF9-4056-AA2B-39AFECEDF5D9</title>
    <desc>Created with sketchtool.</desc>
    <defs></defs>
    <g id="Web-App-Main-Pages" stroke="none" stroke-width="1" fill="none" fill-rule="evenodd">
        <g id="Dashboard-for-Recruiter" transform="translate(-709.000000, -663.000000)" fill="#89939A" fill-rule="nonzero">
            <g id="Group-4" transform="translate(699.000000, 662.000000)">
                <path d="M17,9.83110752 L17,11.0378729 C17,11.1956829 16.9206455,11.4135283 16.8227568,11.5245064 L14.7127089,13.9167041 C14.6146738,14.0278482 14.4561112,14.0276823 14.3582225,13.9167041 L12.2481746,11.5245064 C12.1501395,11.4133623 12.0709314,11.195655 12.0709314,11.0378729 L12.0709314,9.83110752 C12.0709314,9.67329757 12.1498483,9.63488729 12.2471973,9.74525352 L13.8046795,11.510998 C13.903705,11.623265 13.9809455,11.5835721 13.9809455,11.4265869 L13.9809455,7.50553913 C13.9809455,7.35081376 14.0911425,7.22129228 14.2270775,7.22129228 L14.8438539,7.22129228 C14.9795923,7.22129228 15.0899859,7.34855394 15.0899859,7.50553913 L15.0899859,11.4265869 C15.0899859,11.5813123 15.1689029,11.6213643 15.2662519,11.510998 L16.8237341,9.74525352 C16.9227596,9.6329866 17,9.67332541 17,9.83110752 Z M10,5.16889248 L10,3.96212705 C10,3.8043171 10.0793545,3.58647174 10.1772432,3.47549359 L12.2872911,1.08329586 C12.3853262,0.972151771 12.5438888,0.972317689 12.6417775,1.08329586 L14.7518254,3.47549359 C14.8498605,3.58663765 14.9290686,3.80434497 14.9290686,3.96212705 L14.9290686,5.16889248 C14.9290686,5.32670243 14.8501517,5.36511271 14.7528027,5.25474648 L13.1953205,3.48900196 C13.096295,3.37673504 13.0190545,3.41642787 13.0190545,3.57341309 L13.0190545,7.49446087 C13.0190545,7.64918624 12.9088575,7.77870772 12.7729225,7.77870772 L12.1561461,7.77870772 C12.0204077,7.77870772 11.9100141,7.65144606 11.9100141,7.49446087 L11.9100141,3.57341309 C11.9100141,3.41868769 11.8310971,3.37863573 11.7337481,3.48900196 L10.1762659,5.25474648 C10.0772404,5.3670134 10,5.32667459 10,5.16889248 Z" id="sort-arrows-copy-6"></path>
            </g>
        </g>
    </g>
</svg>