<?xml version="1.0" encoding="UTF-8" standalone="no"?>
<svg width="16px" height="18px" viewBox="0 0 16 18" version="1.1" xmlns="http://www.w3.org/2000/svg" xmlns:xlink="http://www.w3.org/1999/xlink">
    <!-- Generator: sketchtool 49 (51002) - http://www.bohemiancoding.com/sketch -->
    <title>94A1F77E-9331-4052-83AB-19DF632E7673</title>
    <desc>Created with sketchtool.</desc>
    <defs></defs>
    <g id="Symbols" stroke="none" stroke-width="1" fill="none" fill-rule="evenodd">
        <g id="webapp/new-trash" fill-rule="nonzero">
            <g id="trash">
                <path d="M15.5467748,1.68596226 L10.5878559,1.68596226 L10.5878559,0.837197111 C10.5878559,0.37555918 10.2011532,0 9.72587387,0 L6.27416216,0 C5.79884685,0 5.41218018,0.37555918 5.41218018,0.837197111 L5.41218018,1.68592731 L0.453225225,1.68592731 C0.213405405,1.68592731 0.019027027,1.87444082 0.019027027,2.1070247 C0.019027027,2.33960857 0.213405405,2.52812209 0.453225225,2.52812209 L1.25798198,2.52812209 L1.80673874,16.3816636 C1.84032432,17.229555 2.552,17.8937558 3.42699099,17.8937558 L12.5730811,17.8937558 C13.4480721,17.8937558 14.1597477,17.22952 14.1932613,16.3816286 L14.742018,2.52808714 L15.5467748,2.52808714 C15.7865225,2.52808714 15.980973,2.33957363 15.980973,2.10698975 C15.980973,1.87447577 15.7865946,1.68596226 15.5467748,1.68596226 Z" id="Shape" fill="#A7B9C6"></path>
                <path d="M5.35603604,6.34567801 C5.35145946,6.11589003 5.15805405,5.93268872 4.92209009,5.93268872 C4.91927928,5.93268872 4.9163964,5.93268872 4.91358559,5.93275862 C4.67387387,5.93723206 4.48320721,6.12938024 4.48781982,6.36185927 L4.62407207,13.2339702 C4.62861261,13.4637582 4.82209009,13.6469595 5.05801802,13.6469595 C5.06082883,13.6469595 5.06371171,13.6469595 5.06652252,13.6468896 C5.30627027,13.6424161 5.4969009,13.4503378 5.49228829,13.2177889 L5.35603604,6.34567801 Z" id="Shape" fill="#FFFFFF"></path>
                <path d="M7.99992793,5.93265377 C7.76014414,5.93265377 7.56572973,6.12116729 7.56572973,6.35375116 L7.56572973,13.2258621 C7.56572973,13.458411 7.76010811,13.6469595 7.99992793,13.6469595 C8.23974775,13.6469595 8.43412613,13.4584459 8.43412613,13.2258621 L8.43412613,6.35375116 C8.43412613,6.12120224 8.23974775,5.93265377 7.99992793,5.93265377 Z" id="Shape" fill="#FFFFFF"></path>
                <path d="M11.0863063,5.93275862 C10.8474595,5.92762116 10.6484324,6.11316403 10.6438559,6.34567801 L10.5076036,13.2177889 C10.502955,13.4503029 10.6936216,13.6424161 10.9333694,13.6468896 C10.9361802,13.6469245 10.9390631,13.6469595 10.9418739,13.6469595 C11.1777658,13.6469595 11.3712793,13.4636883 11.3758198,13.2339702 L11.5120721,6.36185927 C11.5166847,6.12931034 11.3260901,5.93719711 11.0863063,5.93275862 Z" id="Shape" fill="#FFFFFF"></path>
            </g>
        </g>
    </g>
</svg>